<svg xmlns="http://www.w3.org/2000/svg" xmlns:xlink="http://www.w3.org/1999/xlink" width="500" zoomAndPan="magnify" viewBox="0 0 375 374.999991" height="500" preserveAspectRatio="xMidYMid meet" version="1.0"><defs><clipPath id="5205211a4d"><path d="M 57.140625 18.75 L 318 18.75 L 318 356.25 L 57.140625 356.25 Z M 57.140625 18.75 " clip-rule="nonzero"/></clipPath></defs><g clip-path="url(#5205211a4d)"><path fill="#ff751f" d="M 317.867188 329.929688 L 317.867188 45.101562 C 317.867188 37.851562 314.90625 31.261719 310.132812 26.488281 C 305.355469 21.710938 298.769531 18.75 291.515625 18.75 L 83.511719 18.75 C 76.261719 18.75 69.671875 21.710938 64.898438 26.488281 C 60.125 31.261719 57.160156 37.851562 57.160156 45.101562 L 57.160156 329.929688 C 57.160156 337.183594 60.125 343.777344 64.898438 348.550781 C 69.671875 353.320312 76.261719 356.289062 83.511719 356.289062 L 291.515625 356.289062 C 298.769531 356.289062 305.355469 353.320312 310.132812 348.550781 C 314.90625 343.777344 317.867188 337.183594 317.867188 329.929688 Z M 95.699219 151.699219 L 122.167969 151.699219 C 126.710938 151.699219 130.84375 153.316406 133.832031 155.910156 C 136.828125 158.511719 138.683594 162.101562 138.683594 166.054688 L 138.683594 187.222656 C 138.683594 191.175781 136.828125 194.765625 133.832031 197.363281 C 130.84375 199.964844 126.710938 201.578125 122.167969 201.578125 L 95.699219 201.578125 C 91.148438 201.578125 87.019531 199.960938 84.027344 197.363281 C 81.039062 194.765625 79.179688 191.175781 79.179688 187.222656 L 79.179688 166.054688 C 79.179688 162.101562 81.039062 158.511719 84.027344 155.910156 C 87.019531 153.316406 91.148438 151.699219 95.699219 151.699219 Z M 172.039062 151.699219 L 198.507812 151.699219 C 203.054688 151.699219 207.183594 153.316406 210.175781 155.910156 C 213.167969 158.511719 215.023438 162.101562 215.023438 166.054688 L 215.023438 187.222656 C 215.023438 191.175781 213.167969 194.765625 210.175781 197.363281 C 207.183594 199.960938 203.054688 201.578125 198.507812 201.578125 L 172.039062 201.578125 C 167.488281 201.578125 163.359375 199.960938 160.367188 197.363281 C 157.378906 194.765625 155.523438 191.175781 155.523438 187.222656 L 155.523438 166.054688 C 155.523438 162.101562 157.378906 158.511719 160.367188 155.910156 C 163.359375 153.316406 167.488281 151.699219 172.039062 151.699219 Z M 248.378906 151.699219 L 274.847656 151.699219 C 279.394531 151.699219 283.523438 153.316406 286.515625 155.910156 C 289.507812 158.511719 291.363281 162.101562 291.363281 166.054688 L 291.363281 187.222656 C 291.363281 191.175781 289.507812 194.765625 286.515625 197.363281 C 283.523438 199.960938 279.394531 201.578125 274.847656 201.578125 L 248.378906 201.578125 C 243.832031 201.578125 239.699219 199.964844 236.710938 197.363281 C 233.71875 194.765625 231.859375 191.175781 231.859375 187.222656 L 231.859375 166.054688 C 231.859375 162.101562 233.71875 158.511719 236.710938 155.910156 C 239.699219 153.316406 243.832031 151.699219 248.378906 151.699219 Z M 95.699219 217.273438 L 122.167969 217.273438 C 126.710938 217.273438 130.84375 218.886719 133.832031 221.484375 C 136.828125 224.085938 138.683594 227.671875 138.683594 231.625 L 138.683594 252.796875 C 138.683594 256.75 136.828125 260.339844 133.832031 262.941406 C 130.84375 265.535156 126.710938 267.148438 122.167969 267.148438 L 95.699219 267.148438 C 91.148438 267.148438 87.019531 265.535156 84.027344 262.941406 C 81.039062 260.339844 79.179688 256.75 79.179688 252.796875 L 79.179688 231.625 C 79.179688 227.671875 81.039062 224.085938 84.027344 221.484375 C 87.019531 218.886719 91.148438 217.273438 95.699219 217.273438 Z M 172.039062 217.273438 L 198.507812 217.273438 C 203.054688 217.273438 207.183594 218.886719 210.175781 221.484375 C 213.167969 224.085938 215.023438 227.671875 215.023438 231.625 L 215.023438 252.796875 C 215.023438 256.75 213.167969 260.339844 210.175781 262.941406 C 207.183594 265.535156 203.054688 267.148438 198.507812 267.148438 L 172.039062 267.148438 C 167.488281 267.148438 163.359375 265.535156 160.367188 262.941406 C 157.378906 260.339844 155.523438 256.75 155.523438 252.796875 L 155.523438 231.625 C 155.523438 227.671875 157.378906 224.085938 160.367188 221.484375 C 163.359375 218.886719 167.488281 217.273438 172.039062 217.273438 Z M 248.378906 217.273438 L 274.847656 217.273438 C 279.394531 217.273438 283.523438 218.886719 286.515625 221.484375 C 289.507812 224.085938 291.363281 227.671875 291.363281 231.625 L 291.363281 318.371094 C 291.363281 322.324219 289.507812 325.914062 286.515625 328.511719 C 283.523438 331.109375 279.394531 332.722656 274.847656 332.722656 L 248.378906 332.722656 C 243.832031 332.722656 239.699219 331.109375 236.710938 328.511719 C 233.71875 325.914062 231.859375 322.324219 231.859375 318.371094 L 231.859375 231.625 C 231.859375 227.671875 233.71875 224.085938 236.710938 221.484375 C 239.699219 218.886719 243.832031 217.273438 248.378906 217.273438 Z M 95.699219 282.847656 L 122.167969 282.847656 C 126.710938 282.847656 130.84375 284.460938 133.832031 287.0625 C 136.828125 289.65625 138.683594 293.25 138.683594 297.199219 L 138.683594 318.371094 C 138.683594 322.324219 136.828125 325.914062 133.832031 328.511719 C 130.84375 331.109375 126.710938 332.722656 122.167969 332.722656 L 95.699219 332.722656 C 91.148438 332.722656 87.019531 331.109375 84.027344 328.511719 C 81.039062 325.914062 79.179688 322.324219 79.179688 318.371094 L 79.179688 297.199219 C 79.179688 293.25 81.039062 289.65625 84.027344 287.0625 C 87.019531 284.460938 91.148438 282.847656 95.699219 282.847656 Z M 172.039062 282.847656 L 198.507812 282.847656 C 203.054688 282.847656 207.183594 284.460938 210.175781 287.0625 C 213.167969 289.65625 215.023438 293.25 215.023438 297.199219 L 215.023438 318.371094 C 215.023438 322.324219 213.167969 325.914062 210.175781 328.511719 C 207.183594 331.109375 203.054688 332.722656 198.507812 332.722656 L 172.039062 332.722656 C 167.488281 332.722656 163.359375 331.109375 160.367188 328.511719 C 157.378906 325.914062 155.523438 322.324219 155.523438 318.371094 L 155.523438 297.199219 C 155.523438 293.25 157.378906 289.65625 160.367188 287.0625 C 163.359375 284.460938 167.488281 282.847656 172.039062 282.847656 Z M 291.988281 113.71875 C 291.988281 117.003906 290.546875 119.996094 288.222656 122.167969 C 285.902344 124.339844 282.707031 125.6875 279.191406 125.6875 L 95.839844 125.6875 C 92.328125 125.6875 89.128906 124.339844 86.8125 122.167969 C 84.488281 119.996094 83.046875 117.003906 83.046875 113.71875 L 83.046875 61.078125 C 83.046875 57.789062 84.488281 54.796875 86.8125 52.625 C 89.128906 50.449219 92.328125 49.101562 95.839844 49.101562 L 279.191406 49.101562 C 282.707031 49.101562 285.902344 50.449219 288.222656 52.625 C 290.546875 54.796875 291.988281 57.789062 291.988281 61.078125 L 291.988281 113.71875 " fill-opacity="1" fill-rule="evenodd"/></g></svg>