<svg xmlns="http://www.w3.org/2000/svg" xmlns:xlink="http://www.w3.org/1999/xlink" width="500" zoomAndPan="magnify" viewBox="0 0 375 374.999991" height="500" preserveAspectRatio="xMidYMid meet" version="1.0"><defs><clipPath id="ea3d1b239d"><path d="M 100.84375 75.324219 L 274.09375 75.324219 L 274.09375 299.574219 L 100.84375 299.574219 Z M 100.84375 75.324219 " clip-rule="nonzero"/></clipPath></defs><g clip-path="url(#ea3d1b239d)"><path fill="#ff751f" d="M 274.15625 282.171875 L 274.15625 92.839844 C 274.15625 88.023438 272.1875 83.640625 269.015625 80.464844 C 265.839844 77.292969 261.460938 75.324219 256.640625 75.324219 L 118.375 75.324219 C 113.558594 75.324219 109.175781 77.292969 106 80.464844 C 102.828125 83.640625 100.859375 88.023438 100.859375 92.839844 L 100.859375 282.171875 C 100.859375 286.996094 102.828125 291.375 106 294.550781 C 109.175781 297.722656 113.558594 299.691406 118.375 299.691406 L 256.640625 299.691406 C 261.460938 299.691406 265.839844 297.722656 269.015625 294.550781 C 272.1875 291.375 274.15625 286.996094 274.15625 282.171875 Z M 126.476562 163.699219 L 144.070312 163.699219 C 147.089844 163.699219 149.835938 164.773438 151.824219 166.5 C 153.816406 168.226562 155.050781 170.613281 155.050781 173.242188 L 155.050781 187.3125 C 155.050781 189.941406 153.816406 192.324219 151.824219 194.054688 C 149.835938 195.78125 147.089844 196.855469 144.070312 196.855469 L 126.476562 196.855469 C 123.453125 196.855469 120.707031 195.78125 118.71875 194.054688 C 116.730469 192.324219 115.496094 189.941406 115.496094 187.3125 L 115.496094 173.242188 C 115.496094 170.613281 116.730469 168.226562 118.71875 166.5 C 120.707031 164.773438 123.453125 163.699219 126.476562 163.699219 Z M 177.222656 163.699219 L 194.816406 163.699219 C 197.839844 163.699219 200.582031 164.773438 202.570312 166.5 C 204.558594 168.226562 205.792969 170.613281 205.792969 173.242188 L 205.792969 187.3125 C 205.792969 189.941406 204.558594 192.324219 202.570312 194.054688 C 200.582031 195.78125 197.839844 196.855469 194.816406 196.855469 L 177.222656 196.855469 C 174.195312 196.855469 171.449219 195.78125 169.464844 194.054688 C 167.476562 192.324219 166.242188 189.941406 166.242188 187.3125 L 166.242188 173.242188 C 166.242188 170.613281 167.476562 168.226562 169.464844 166.5 C 171.449219 164.773438 174.195312 163.699219 177.222656 163.699219 Z M 227.964844 163.699219 L 245.558594 163.699219 C 248.582031 163.699219 251.328125 164.773438 253.316406 166.5 C 255.304688 168.226562 256.539062 170.613281 256.539062 173.242188 L 256.539062 187.3125 C 256.539062 189.941406 255.304688 192.324219 253.316406 194.054688 C 251.328125 195.78125 248.582031 196.855469 245.558594 196.855469 L 227.964844 196.855469 C 224.941406 196.855469 222.195312 195.78125 220.207031 194.054688 C 218.222656 192.324219 216.984375 189.941406 216.984375 187.3125 L 216.984375 173.242188 C 216.984375 170.613281 218.222656 168.226562 220.207031 166.5 C 222.195312 164.773438 224.941406 163.699219 227.964844 163.699219 Z M 126.476562 207.285156 L 144.070312 207.285156 C 147.089844 207.285156 149.835938 208.359375 151.824219 210.085938 C 153.816406 211.816406 155.050781 214.199219 155.050781 216.828125 L 155.050781 230.898438 C 155.050781 233.527344 153.816406 235.914062 151.824219 237.640625 C 149.835938 239.367188 147.089844 240.441406 144.070312 240.441406 L 126.476562 240.441406 C 123.453125 240.441406 120.707031 239.367188 118.71875 237.640625 C 116.730469 235.914062 115.496094 233.527344 115.496094 230.898438 L 115.496094 216.828125 C 115.496094 214.199219 116.730469 211.816406 118.71875 210.085938 C 120.707031 208.359375 123.453125 207.285156 126.476562 207.285156 Z M 177.222656 207.285156 L 194.816406 207.285156 C 197.839844 207.285156 200.582031 208.359375 202.570312 210.085938 C 204.558594 211.816406 205.792969 214.199219 205.792969 216.828125 L 205.792969 230.898438 C 205.792969 233.527344 204.558594 235.914062 202.570312 237.640625 C 200.582031 239.367188 197.839844 240.441406 194.816406 240.441406 L 177.222656 240.441406 C 174.195312 240.441406 171.449219 239.367188 169.464844 237.640625 C 167.476562 235.914062 166.242188 233.527344 166.242188 230.898438 L 166.242188 216.828125 C 166.242188 214.199219 167.476562 211.816406 169.464844 210.085938 C 171.449219 208.359375 174.195312 207.285156 177.222656 207.285156 Z M 227.964844 207.285156 L 245.558594 207.285156 C 248.582031 207.285156 251.328125 208.359375 253.316406 210.085938 C 255.304688 211.816406 256.539062 214.199219 256.539062 216.828125 L 256.539062 274.488281 C 256.539062 277.117188 255.304688 279.503906 253.316406 281.230469 C 251.328125 282.957031 248.582031 284.03125 245.558594 284.03125 L 227.964844 284.03125 C 224.941406 284.03125 222.195312 282.957031 220.207031 281.230469 C 218.222656 279.503906 216.984375 277.117188 216.984375 274.488281 L 216.984375 216.828125 C 216.984375 214.199219 218.222656 211.816406 220.207031 210.085938 C 222.195312 208.359375 224.941406 207.285156 227.964844 207.285156 Z M 126.476562 250.875 L 144.070312 250.875 C 147.089844 250.875 149.835938 251.949219 151.824219 253.675781 C 153.816406 255.402344 155.050781 257.789062 155.050781 260.417969 L 155.050781 274.488281 C 155.050781 277.117188 153.816406 279.503906 151.824219 281.230469 C 149.835938 282.957031 147.089844 284.03125 144.070312 284.03125 L 126.476562 284.03125 C 123.453125 284.03125 120.707031 282.957031 118.71875 281.230469 C 116.730469 279.503906 115.496094 277.117188 115.496094 274.488281 L 115.496094 260.417969 C 115.496094 257.789062 116.730469 255.402344 118.71875 253.675781 C 120.707031 251.949219 123.453125 250.875 126.476562 250.875 Z M 177.222656 250.875 L 194.816406 250.875 C 197.839844 250.875 200.582031 251.949219 202.570312 253.675781 C 204.558594 255.402344 205.792969 257.789062 205.792969 260.417969 L 205.792969 274.488281 C 205.792969 277.117188 204.558594 279.503906 202.570312 281.230469 C 200.582031 282.957031 197.839844 284.03125 194.816406 284.03125 L 177.222656 284.03125 C 174.195312 284.03125 171.449219 282.957031 169.464844 281.230469 C 167.476562 279.503906 166.242188 277.117188 166.242188 274.488281 L 166.242188 260.417969 C 166.242188 257.789062 167.476562 255.402344 169.464844 253.675781 C 171.449219 251.949219 174.195312 250.875 177.222656 250.875 Z M 256.953125 138.449219 C 256.953125 140.636719 255.996094 142.625 254.453125 144.070312 C 252.910156 145.511719 250.785156 146.410156 248.449219 146.410156 L 126.570312 146.410156 C 124.234375 146.410156 122.109375 145.511719 120.566406 144.070312 C 119.023438 142.625 118.066406 140.636719 118.066406 138.449219 L 118.066406 103.460938 C 118.066406 101.273438 119.023438 99.285156 120.566406 97.839844 C 122.109375 96.394531 124.234375 95.5 126.570312 95.5 L 248.449219 95.5 C 250.785156 95.5 252.910156 96.394531 254.453125 97.839844 C 255.996094 99.285156 256.953125 101.273438 256.953125 103.460938 L 256.953125 138.449219 " fill-opacity="1" fill-rule="evenodd"/></g></svg>